<?xml version="1.0" encoding="UTF-8" standalone="no"?>
<!-- Created with Inkscape (http://www.inkscape.org/) -->

<svg
   xmlns:dc="http://purl.org/dc/elements/1.1/"
   xmlns:cc="http://creativecommons.org/ns#"
   xmlns:rdf="http://www.w3.org/1999/02/22-rdf-syntax-ns#"
   xmlns:svg="http://www.w3.org/2000/svg"
   xmlns="http://www.w3.org/2000/svg"
   xmlns:sodipodi="http://sodipodi.sourceforge.net/DTD/sodipodi-0.dtd"
   xmlns:inkscape="http://www.inkscape.org/namespaces/inkscape"
   width="360"
   height="360"
   viewBox="0 0 95.249998 95.250003"
   version="1.1"
   id="svg1862"
   inkscape:version="0.92.3 (2405546, 2018-03-11)"
   sodipodi:docname="logo-shadows.svg">
  <defs
     id="defs1856">
    <filter
       inkscape:collect="always"
       style="color-interpolation-filters:sRGB"
       id="filter1228-1-9"
       x="-0.011598431"
       width="1.0231969"
       y="-0.018986022"
       height="1.037972">
      <feGaussianBlur
         inkscape:collect="always"
         stdDeviation="0.97186796"
         id="feGaussianBlur1230-9-4" />
    </filter>
    <filter
       inkscape:collect="always"
       style="color-interpolation-filters:sRGB"
       id="filter1253-4-9"
       x="-0.060012363"
       width="1.1200247"
       y="-0.089972198"
       height="1.1799444">
      <feGaussianBlur
         inkscape:collect="always"
         stdDeviation="0.50242017"
         id="feGaussianBlur1255-7-0" />
    </filter>
    <filter
       inkscape:collect="always"
       style="color-interpolation-filters:sRGB"
       id="filter1243-8-9"
       x="-0.047195788"
       width="1.0943916"
       y="-0.066473663"
       height="1.1329473">
      <feGaussianBlur
         inkscape:collect="always"
         stdDeviation="0.40274678"
         id="feGaussianBlur1245-4-1" />
    </filter>
    <filter
       inkscape:collect="always"
       style="color-interpolation-filters:sRGB"
       id="filter1284-5-7"
       x="-0.064362094"
       width="1.1287242"
       y="-0.081694797"
       height="1.1633896">
      <feGaussianBlur
         inkscape:collect="always"
         stdDeviation="0.16524124"
         id="feGaussianBlur1286-0-7" />
    </filter>
    <filter
       inkscape:collect="always"
       style="color-interpolation-filters:sRGB"
       id="filter1311-3-1"
       x="-0.10156696"
       width="1.2031339"
       y="-0.04629454"
       height="1.0925891">
      <feGaussianBlur
         inkscape:collect="always"
         stdDeviation="0.32353518"
         id="feGaussianBlur1313-6-1" />
    </filter>
  </defs>
  <sodipodi:namedview
     id="base"
     pagecolor="#ffffff"
     bordercolor="#666666"
     borderopacity="1.0"
     inkscape:pageopacity="0.0"
     inkscape:pageshadow="2"
     inkscape:zoom="0.35"
     inkscape:cx="-140"
     inkscape:cy="560"
     inkscape:document-units="mm"
     inkscape:current-layer="layer1"
     showgrid="false"
     units="px"
     inkscape:window-width="960"
     inkscape:window-height="1025"
     inkscape:window-x="960"
     inkscape:window-y="27"
     inkscape:window-maximized="0" />
  <metadata
     id="metadata1859">
    <rdf:RDF>
      <cc:Work
         rdf:about="">
        <dc:format>image/svg+xml</dc:format>
        <dc:type
           rdf:resource="http://purl.org/dc/dcmitype/StillImage" />
        <dc:title></dc:title>
      </cc:Work>
    </rdf:RDF>
  </metadata>
  <g
     inkscape:label="Layer 1"
     inkscape:groupmode="layer"
     id="layer1"
     transform="translate(0,-201.74998)">
    <g
       transform="matrix(1.7495405,0,0,1.7495405,-616.67989,-1038.6219)"
       id="g1569-1-5"
       inkscape:export-xdpi="599"
       inkscape:export-ydpi="599">
      <path
         id="path1525-0-9"
         d="m 391.61622,724.31428 c -4.32468,-0.002 -8.91931,2.22376 -12.538,7.60108 -4.53089,6.73284 -13.93179,10.7507 -23.41518,7.69733 2.3624,5.60476 10.20212,15.17031 24.16557,17.63727 11.57666,-2.74708 23.71725,-13.20368 25.1307,-21.52944 -1.27822,-6.64025 -7.02239,-11.40308 -13.34309,-11.40624 z"
         style="opacity:1;fill:#ececf4;fill-opacity:1;stroke:none;stroke-width:1.63193345;stroke-linecap:round;stroke-linejoin:miter;stroke-miterlimit:4;stroke-dasharray:none;stroke-dashoffset:0;stroke-opacity:1"
         inkscape:connector-curvature="0"
         sodipodi:nodetypes="cscccc" />
      <path
         inkscape:connector-curvature="0"
         style="opacity:1;fill:#dec196;fill-opacity:1;stroke:none;stroke-width:3.29700303;stroke-linecap:round;stroke-linejoin:miter;stroke-miterlimit:4;stroke-dasharray:none;stroke-dashoffset:0;stroke-opacity:1"
         d="m 369.0431,714.64855 c -2.10121,0.0429 -1.38544,3.13828 -2.36105,3.63656 -2.64148,0.11135 -5.13694,1.14562 -7.43216,2.39102 -1.1498,-1.7797 -4.30181,-3.10656 -5.22091,-0.40222 -1.47899,4.12673 0.0278,8.47711 -0.63839,12.70246 0.0501,1.51719 0.28758,2.96614 0.6811,4.34857 l 1.59135,2.28775 c 9.4834,3.05336 18.88429,-0.96449 23.41519,-7.69733 3.61868,-5.37732 8.21331,-7.60325 12.538,-7.60108 6.32069,0.003 12.06486,4.76598 13.34308,11.40624 l 0.0752,-3.69776 c 0.21528,0.26539 0.43784,0.53091 0.66772,0.79584 0.11222,-3.45743 -0.77814,-6.91831 -3.02909,-9.58127 2.72239,-3.18303 -2.20155,-7.02286 -5.33404,-6.30995 -1.30974,0.69742 -1.75738,2.57925 -3.5282,1.49988 -2.77049,-0.54075 -5.77705,0.23027 -8.31883,0.7662 -1.63002,-4.13359 -7.81456,1.1727 -5.16895,3.9438 -1.18833,2.0056 -2.47832,-1.73332 -3.95496,-2.26225 -3.04252,-1.33845 -3.76435,-5.78777 -7.32508,-6.22646 z"
         id="path1527-6-7"
         sodipodi:nodetypes="cccccccsccccccccccc" />
      <path
         style="opacity:1;fill:#694c2a;fill-opacity:1;stroke:none;stroke-width:1.63193345;stroke-linecap:round;stroke-linejoin:miter;stroke-miterlimit:4;stroke-dasharray:none;stroke-dashoffset:0;stroke-opacity:1"
         d="m 374.11022,734.98518 c 1.30505,-0.64302 2.59099,-0.54183 2.95041,0.26226 0.42781,0.95708 -0.71921,2.69705 -1.26759,3.03989 -0.52958,0.3311 -2.62041,0.35059 -3.16895,-0.17484 -0.86938,-0.83277 0.13711,-2.46263 1.48613,-3.12731 z"
         id="path1529-3-7"
         inkscape:connector-curvature="0"
         sodipodi:nodetypes="sssss" />
      <path
         style="opacity:1;fill:#694c2a;fill-opacity:1;stroke:none;stroke-width:1.24371839;stroke-linecap:round;stroke-linejoin:miter;stroke-miterlimit:4;stroke-dasharray:none;stroke-dashoffset:0;stroke-opacity:1"
         d="m 388.67333,724.06964 c 1.30199,-0.31268 2.85108,-0.17306 3.43903,0.51821 1.02452,1.20458 -1.26722,4.75569 -2.71668,4.88374 -1.27382,0.11253 -3.02119,-1.54785 -3.10926,-2.74808 -0.0828,-1.12791 0.76838,-2.26516 2.38691,-2.65387 z"
         id="path1531-2-6"
         inkscape:connector-curvature="0"
         sodipodi:nodetypes="sssss" />
      <path
         style="opacity:1;fill:#694c2a;fill-opacity:1;stroke:none;stroke-width:1.63193345;stroke-linecap:round;stroke-linejoin:miter;stroke-miterlimit:4;stroke-dasharray:none;stroke-dashoffset:0;stroke-opacity:1"
         d="m 365.39252,738.84629 c 0.29294,-1.86214 0.93404,-3.3896 2.55502,-3.20408 l 0.0235,-0.084 0.24302,-0.1533 c 0.29304,0.24257 0.49122,0.59582 0.61951,1.0306 -1.70526,0.27642 -2.07285,1.09782 -2.79196,3.04953 l -0.40926,-0.40274 0.004,-0.29832 -0.13957,0.16542 z"
         id="path1533-0-7"
         inkscape:connector-curvature="0"
         sodipodi:nodetypes="cccccccccc" />
      <path
         style="opacity:1;fill:#694c2a;fill-opacity:1;stroke:none;stroke-width:1.63193345;stroke-linecap:round;stroke-linejoin:miter;stroke-miterlimit:4;stroke-dasharray:none;stroke-dashoffset:0;stroke-opacity:1"
         d="m 377.91067,730.7828 c -1.04586,-0.55265 -2.25502,-0.80534 -2.95106,0.77924 l -0.0254,-0.007 -0.0919,0.0477 c 0.23143,0.22436 0.38656,0.48051 0.53712,0.73857 0.72988,-1.50977 1.66819,-1.3155 2.70696,-1.0613 l -0.11259,-0.31857 -0.085,-0.0979 0.0501,-5.3e-4 z"
         id="path1535-6-3"
         inkscape:connector-curvature="0"
         sodipodi:nodetypes="cccccccccc" />
      <path
         style="opacity:1;fill:#694c2a;fill-opacity:1;stroke:none;stroke-width:1.63193345;stroke-linecap:round;stroke-linejoin:miter;stroke-miterlimit:4;stroke-dasharray:none;stroke-dashoffset:0;stroke-opacity:1"
         d="m 382.61053,726.36959 c 0.38133,-1.06232 0.81614,-2.06411 2.2214,-1.96777 l 0.56663,0.37841 c -1.33357,0.0933 -1.9855,0.61856 -2.83954,2.21503 z"
         id="path1537-1-6"
         inkscape:connector-curvature="0"
         sodipodi:nodetypes="ccccc" />
      <path
         style="opacity:1;fill:#694c2a;fill-opacity:1;stroke:none;stroke-width:1.63193345;stroke-linecap:round;stroke-linejoin:miter;stroke-miterlimit:4;stroke-dasharray:none;stroke-dashoffset:0;stroke-opacity:1"
         d="m 396.06338,723.36384 c -0.79352,-0.80267 -1.61002,-1.52789 -2.84379,-0.8483 l -0.35438,0.58197 c 1.24866,-0.47746 2.06125,-0.27582 3.50856,0.81202 z"
         id="path1539-5-5"
         inkscape:connector-curvature="0"
         sodipodi:nodetypes="ccccc" />
      <path
         style="opacity:1;fill:#694c2a;fill-opacity:1;stroke:none;stroke-width:1.63193345;stroke-linecap:round;stroke-linejoin:miter;stroke-miterlimit:4;stroke-dasharray:none;stroke-dashoffset:0;stroke-opacity:1"
         d="m 378.99651,733.97878 1.35167,3.06196 v 1.44243 l -2.54973,0.48081 c 0.36916,-0.59928 1.03258,-0.93011 1.45473,-1.61011 0.35833,-0.5772 -0.12366,-2.29699 -0.25667,-3.37509 z"
         id="path1541-5-6"
         inkscape:connector-curvature="0"
         sodipodi:nodetypes="ccccsc" />
      <path
         style="opacity:0.13999999;fill:#000000;fill-opacity:1;stroke:none;stroke-width:1.88976383;stroke-linecap:round;stroke-linejoin:round;stroke-miterlimit:4;stroke-dasharray:none;stroke-dashoffset:0;stroke-opacity:1;filter:url(#filter1228-1-9)"
         d="m 1803.9023,2741.1582 c -1.8717,54.1392 -40.9357,86.9926 -96.7597,104.9336 -17.4845,0.1 -29.1816,-10.5123 -35.3125,-22.9023 l -5.2793,7.3828 c -31.8278,-19.4145 -48.3109,-43.328 -53.336,-77.6953 l -4.3847,19.0019 c 1.6582,17.4506 11.0617,36.2393 26.3633,51.1738 16.5383,16.1415 39.6558,32.7975 73.3359,40.8731 0.4729,0.1134 0.9666,0.1134 1.4395,0 33.68,-8.0756 60.5346,-29.5818 75.6347,-45.8906 15.4818,-16.7211 26.0509,-36.6196 24.0977,-56.7364 -0.6878,-7.0837 -2.6114,-13.9228 -5.7989,-20.1406 z"
         transform="matrix(0.26458333,0,0,0.26458333,-72.571427,0)"
         id="path1543-4-3"
         inkscape:connector-curvature="0" />
      <path
         style="opacity:0.24600004;fill:#000000;fill-opacity:1;stroke:none;stroke-width:0.5;stroke-linecap:round;stroke-linejoin:round;stroke-miterlimit:4;stroke-dasharray:none;stroke-dashoffset:0;stroke-opacity:1"
         d="m 370.72443,745.5117 c 2.95941,-2.06967 6.6512,-2.02836 11.1251,0.26727 2.12716,-0.58938 2.93983,-2.02764 3.27405,-4.51018 1.11975,3.07027 -0.61675,6.0001 -3.64155,7.21628 -2.66517,-2.31693 -5.87861,-3.84434 -10.7576,-2.97337 z"
         id="path1545-7-9"
         inkscape:connector-curvature="0"
         sodipodi:nodetypes="ccccc" />
      <path
         style="opacity:0.24600004;fill:#000000;fill-opacity:1;stroke:none;stroke-width:0.5;stroke-linecap:round;stroke-linejoin:round;stroke-miterlimit:4;stroke-dasharray:none;stroke-dashoffset:0;stroke-opacity:1"
         d="m 356.45891,718.95175 2.50565,1.1359 0.66817,1.9377 c -1.03836,0.81194 -2.11146,1.80168 -3.00678,3.57473 -0.8684,-2.0923 -0.82356,-4.99897 -0.16704,-6.64833 z"
         id="path1547-6-4"
         inkscape:connector-curvature="0"
         sodipodi:nodetypes="ccccc" />
      <path
         style="opacity:0.24600004;fill:#000000;fill-opacity:1;stroke:none;stroke-width:0.5;stroke-linecap:round;stroke-linejoin:round;stroke-miterlimit:4;stroke-dasharray:none;stroke-dashoffset:0;stroke-opacity:1"
         d="m 368.58613,715.04317 -1.11569,0.35915 c -0.36862,0.7449 -0.52173,1.54836 -0.65836,2.28771 -0.19823,0.0142 -0.39643,0.0327 -0.59428,0.0537 l 0.53123,1.74255 c 1.47672,0.0401 3.15711,0.1502 4.7439,0.43407 -0.35245,-1.9658 -1.43545,-3.34409 -2.9068,-4.87722 z"
         id="path1549-5-8"
         inkscape:connector-curvature="0" />
      <path
         style="opacity:0.24600004;fill:#000000;fill-opacity:1;stroke:none;stroke-width:0.5;stroke-linecap:round;stroke-linejoin:round;stroke-miterlimit:4;stroke-dasharray:none;stroke-dashoffset:0;stroke-opacity:1"
         d="m 380.12593,721.46729 c 1.20271,0.42595 2.309,0.24926 3.26005,-0.89769 0.0141,0.57371 0.0459,1.15929 -0.30711,1.48827 l -2.12612,0.54334 z"
         id="path1551-6-1"
         inkscape:connector-curvature="0"
         sodipodi:nodetypes="ccccc" />
      <path
         style="opacity:0.24600004;fill:#000000;fill-opacity:1;stroke:none;stroke-width:0.5;stroke-linecap:round;stroke-linejoin:round;stroke-miterlimit:4;stroke-dasharray:none;stroke-dashoffset:0;stroke-opacity:1"
         d="m 399.07199,720.73492 c 1.43257,0.74849 2.33841,1.14939 3.2128,0.7087 l -1.2048,1.81901 -1.41742,-1.27567 c -0.31416,-0.43269 -0.38666,-0.73273 -0.59058,-1.25204 z"
         id="path1553-9-2"
         inkscape:connector-curvature="0"
         sodipodi:nodetypes="ccccc" />
      <path
         style="opacity:0.24600004;fill:#000000;fill-opacity:1;stroke:none;stroke-width:0.5;stroke-linecap:round;stroke-linejoin:round;stroke-miterlimit:4;stroke-dasharray:none;stroke-dashoffset:0;stroke-opacity:1"
         d="m 372.29475,737.24782 c 0.48249,0.42553 1.92346,0.53574 2.912,0.1309 0.7192,-0.29453 1.57113,-0.93146 1.88357,-2.11527 0.35832,1.09788 -0.45959,2.9933 -1.44103,3.46084 -0.54701,0.26058 -2.2801,0.42329 -3.07106,-0.27167 -0.44269,-0.38896 -0.28348,-1.2048 -0.28348,-1.2048 z"
         id="path1555-3-9"
         inkscape:connector-curvature="0"
         sodipodi:nodetypes="cscssc" />
      <path
         style="opacity:0.24600004;fill:#000000;fill-opacity:1;stroke:none;stroke-width:0.5;stroke-linecap:round;stroke-linejoin:round;stroke-miterlimit:4;stroke-dasharray:none;stroke-dashoffset:0;stroke-opacity:1"
         d="m 386.35972,727.03663 c 0.71463,0.92186 1.78596,1.29233 2.81716,0.98693 0.96289,-0.28518 2.64635,-1.47787 3.1797,-2.85781 0.35203,1.30382 -1.03046,4.57665 -2.48608,4.69392 -2.15034,0.17324 -3.47697,-2.07614 -3.51078,-2.82304 z"
         id="path1557-7-3"
         inkscape:connector-curvature="0"
         sodipodi:nodetypes="cscsc" />
      <path
         style="color:#000000;font-style:normal;font-variant:normal;font-weight:normal;font-stretch:normal;font-size:medium;line-height:normal;font-family:sans-serif;font-variant-ligatures:normal;font-variant-position:normal;font-variant-caps:normal;font-variant-numeric:normal;font-variant-alternates:normal;font-feature-settings:normal;text-indent:0;text-align:start;text-decoration:none;text-decoration-line:none;text-decoration-style:solid;text-decoration-color:#000000;letter-spacing:normal;word-spacing:normal;text-transform:none;writing-mode:lr-tb;direction:ltr;text-orientation:mixed;dominant-baseline:auto;baseline-shift:baseline;text-anchor:start;white-space:normal;shape-padding:0;clip-rule:nonzero;display:inline;overflow:visible;visibility:visible;opacity:1;isolation:auto;mix-blend-mode:normal;color-interpolation:sRGB;color-interpolation-filters:linearRGB;solid-color:#000000;solid-opacity:1;vector-effect:none;fill:#694c2a;fill-opacity:1;fill-rule:nonzero;stroke:#694c2a;stroke-width:0.5;stroke-linecap:round;stroke-linejoin:round;stroke-miterlimit:4;stroke-dasharray:none;stroke-dashoffset:0;stroke-opacity:1;color-rendering:auto;image-rendering:auto;shape-rendering:auto;text-rendering:auto;enable-background:accumulate"
         d="m 368.30706,714.24638 c -1.03524,0.99656 -1.28427,2.2972 -1.49605,3.44341 -1.37858,0.0988 -2.75097,0.36308 -4.06811,0.79775 -1.25438,0.41398 -2.38387,0.95204 -3.39083,1.59295 -0.9365,-0.93663 -2.52524,-1.6253 -3.88676,-1.88618 -1.93086,1.70008 -3.50404,5.24948 -2.22273,10.9559 -0.0673,0.59273 -0.11887,1.08892 -0.15329,1.44347 -0.51678,5.32256 2.09995,11.57276 6.9834,16.33903 4.37577,4.27075 10.49229,8.67739 19.40348,10.81406 0.12511,0.03 0.25545,0.03 0.38056,0 8.91119,-2.13667 16.01634,-7.82645 20.01159,-12.14152 4.09622,-4.42409 6.89303,-9.68901 6.37625,-15.01157 -0.2677,-2.75731 -1.24109,-5.37606 -2.95004,-7.53478 1.15191,-1.16247 1.42804,-2.42353 0.67982,-3.51927 -1.47303,-2.15723 -3.68639,-3.25615 -5.38058,-3.43163 -1.60047,-0.16575 -2.69486,0.0895 -3.25952,2.00729 -3.18072,-0.83202 -6.39564,-0.83216 -9.40884,0.35536 -0.2444,-0.81587 -0.96467,-1.58823 -2.22149,-1.53317 -1.47529,0.0646 -4.38116,2.36828 -4.66038,4.03646 -0.12348,0.73777 0.60004,1.47867 1.04393,1.81597 -0.16563,0.20757 -0.26728,0.3341 -0.42101,0.55456 -1.27231,-1.82432 -2.96029,-3.2097 -4.87606,-4.15893 -1.02043,-2.27673 -3.78647,-4.8344 -6.48334,-4.93916 z m 0.61704,1.23917 c 1.67696,0.31288 3.75176,2.52961 4.42092,4.81039 2.33295,0.95265 4.33682,2.5723 5.60814,4.85916 0.0274,0.0493 0.06,0.0926 0.0943,0.13323 -0.83426,6.85738 0.0467,9.25596 0.65783,12.47362 -1.10386,0.32031 -1.60612,0.78421 -2.24248,1.45716 -1.32866,1.40503 -3.64232,3.07281 -6.40016,3.29746 2.71767,0.50799 5.09237,-0.9087 7.07265,-2.70145 0.82302,-0.74507 1.50667,-0.88169 2.32982,-0.86627 2.78954,0.0522 4.62797,1.89669 4.73485,4.33549 0.0814,1.85858 -1.39687,4.27129 -3.67717,5.07089 -2.53606,-2.94929 -5.72846,-3.83195 -8.58896,-3.469 -2.87765,0.36512 -5.39862,2.01141 -6.03843,6.48078 -2.9487,-1.77838 -5.33332,-4.00525 -6.87043,-5.9029 -4.40165,-5.43412 -6.02228,-10.25667 -4.89594,-17.0396 -1.28288,-4.53194 -0.15527,-7.45019 0.9826,-8.86703 0.90441,0.28345 2.18661,1.33477 3.03291,2.60837 1.14503,-0.91446 2.48262,-1.59084 4.1105,-2.12807 1.21193,-0.39996 2.47186,-0.63976 3.73408,-0.72444 0.54234,-0.0205 0.93313,-0.0215 1.37398,0.0181 -0.13816,-1.20972 -0.114,-2.67035 0.56095,-3.84596 z m 29.32132,2.34895 c 1.32612,0.0471 3.81149,1.53395 4.13662,2.63642 0.27937,0.94731 -0.2384,1.65722 -0.82001,2.20391 -0.14094,0.13248 -1.59691,-0.99765 -1.73491,-0.88329 2.77827,2.43438 4.68222,5.191 5.02721,9.42619 0.39148,4.80592 -1.3099,8.42212 -5.73722,13.85187 -3.45345,4.23537 -11.04198,9.48836 -19.45065,11.56039 -4.02555,-0.99197 -7.91494,-2.56062 -11.25518,-4.39161 0.14409,-3.81435 2.01635,-5.54023 3.83012,-6.14518 2.46346,-0.82164 6.43351,-0.68245 9.1658,2.85621 3.35284,-0.79784 4.96667,-3.14322 5.17669,-5.22715 0.30467,-3.02309 -2.46828,-5.46697 -5.51947,-6.21707 -0.59795,-0.17056 -3.3803,-7.15785 -0.38337,-12.76906 0.40373,-1.01632 1.22263,-2.25424 2.17802,-2.82963 -0.15737,-0.13596 -0.86172,0.49001 -1.21529,0.44113 -0.49397,-0.0683 -1.00746,-0.67107 -0.94974,-1.11059 0.12918,-0.98381 1.7925,-3.14646 2.88236,-3.05421 1.32425,0.11209 1.26874,2.11278 1.17997,2.69446 3.31906,-1.80105 7.92455,-1.98047 11.69371,-0.73656 0.12304,-1.11594 0.49798,-1.88237 1.3077,-2.23293 0.13245,-0.0574 0.29819,-0.08 0.48764,-0.0733 z"
         id="path1559-4-9"
         inkscape:connector-curvature="0"
         sodipodi:nodetypes="cccccccccccscscccsscccccccccccccscscscccccccccscccccscscccsssccccc" />
      <path
         sodipodi:nodetypes="sccs"
         inkscape:connector-curvature="0"
         id="path1561-5-0"
         d="m 362.17587,721.45744 c 4.16005,-2.22733 12.59785,-0.23848 14.93369,2.43883 -7.78881,-1.44534 -14.401,1.27373 -19.19478,10.00165 -2.02265,-2.66263 -0.63882,-9.81702 4.26109,-12.44048 z"
         style="opacity:0.09100001;fill:#ffffff;fill-opacity:1;stroke:none;stroke-width:0.5;stroke-linecap:round;stroke-linejoin:round;stroke-miterlimit:4;stroke-dasharray:none;stroke-dashoffset:0;stroke-opacity:1;filter:url(#filter1253-4-9)" />
      <path
         style="opacity:0.12999998;fill:#ffffff;fill-opacity:1;stroke:none;stroke-width:0.5;stroke-linecap:round;stroke-linejoin:round;stroke-miterlimit:4;stroke-dasharray:none;stroke-dashoffset:0;stroke-opacity:1;filter:url(#filter1243-8-9)"
         d="m 386.46084,720.84323 c 6.45455,-1.93893 10.72467,0.0122 13.42179,2.58057 -7.86289,-2.34266 -13.93854,-3.65955 -18.58057,2.9146 0.84661,-3.2824 2.53772,-4.70781 5.15878,-5.49517 z"
         id="path1563-2-8"
         inkscape:connector-curvature="0"
         sodipodi:nodetypes="sccs" />
      <path
         style="opacity:0.07399998;fill:#ffffff;fill-opacity:1;stroke:none;stroke-width:0.5;stroke-linecap:round;stroke-linejoin:round;stroke-miterlimit:4;stroke-dasharray:none;stroke-dashoffset:0;stroke-opacity:1;filter:url(#filter1284-5-7)"
         d="m 369.79307,737.51024 c 0.80748,-1.95874 3.08722,-3.81482 5.81311,-4.40995 0.32412,0.21518 0.50592,0.53474 0.16704,1.23612 -2.42727,0.15988 -3.55474,1.48441 -3.77518,3.22394 -1.39368,0.5932 -2.01159,0.46809 -2.20497,-0.0501 z"
         id="path1565-5-8"
         inkscape:connector-curvature="0"
         sodipodi:nodetypes="cccccc" />
      <path
         style="opacity:0.456;fill:#ffffff;fill-opacity:1;stroke:none;stroke-width:0.5;stroke-linecap:round;stroke-linejoin:round;stroke-miterlimit:4;stroke-dasharray:none;stroke-dashoffset:0;stroke-opacity:1;filter:url(#filter1311-3-1)"
         d="m 381.09446,726.28645 c -0.34567,2.92249 -0.26034,8.0091 1.84263,9.02418 1.80805,0.87273 4.48692,3.08733 4.72471,7.74852 -0.98663,-2.71542 -2.45938,-5.27655 -6.09487,-6.14212 -1.44816,-3.59133 -2.38666,-7.16378 -0.47247,-10.63058 z"
         id="path1567-4-5"
         inkscape:connector-curvature="0"
         sodipodi:nodetypes="csccc" />
    </g>
  </g>
</svg>
