<?xml version="1.0" encoding="UTF-8" standalone="no"?>
<!-- Created with Inkscape (http://www.inkscape.org/) -->

<svg
   xmlns:dc="http://purl.org/dc/elements/1.1/"
   xmlns:cc="http://creativecommons.org/ns#"
   xmlns:rdf="http://www.w3.org/1999/02/22-rdf-syntax-ns#"
   xmlns:svg="http://www.w3.org/2000/svg"
   xmlns="http://www.w3.org/2000/svg"
   xmlns:sodipodi="http://sodipodi.sourceforge.net/DTD/sodipodi-0.dtd"
   xmlns:inkscape="http://www.inkscape.org/namespaces/inkscape"
   width="128"
   height="128"
   viewBox="0 0 33.866666 33.866668"
   version="1.1"
   id="svg1715"
   inkscape:version="0.92.3 (2405546, 2018-03-11)"
   sodipodi:docname="paw-dark.svg">
  <defs
     id="defs1709" />
  <sodipodi:namedview
     id="base"
     pagecolor="#ffffff"
     bordercolor="#666666"
     borderopacity="1.0"
     inkscape:pageopacity="0.0"
     inkscape:pageshadow="2"
     inkscape:zoom="2.8"
     inkscape:cx="38.397495"
     inkscape:cy="105.40135"
     inkscape:document-units="mm"
     inkscape:current-layer="layer1"
     showgrid="false"
     units="px"
     inkscape:window-width="1920"
     inkscape:window-height="1025"
     inkscape:window-x="0"
     inkscape:window-y="27"
     inkscape:window-maximized="1" />
  <metadata
     id="metadata1712">
    <rdf:RDF>
      <cc:Work
         rdf:about="">
        <dc:format>image/svg+xml</dc:format>
        <dc:type
           rdf:resource="http://purl.org/dc/dcmitype/StillImage" />
        <dc:title></dc:title>
      </cc:Work>
    </rdf:RDF>
  </metadata>
  <g
     inkscape:label="Layer 1"
     inkscape:groupmode="layer"
     id="layer1"
     transform="translate(0,-263.13332)">
    <path
       sodipodi:nodetypes="ccccsscccsccscccccccccscccssccccsccccscsccs"
       inkscape:connector-curvature="0"
       id="path1344"
       d="m 8.6157538,295.40596 c -1.226152,-0.38969 -2.676422,-1.79184 -3.105779,-3.00526 -0.765982,-2.16537 -0.275143,-3.933 1.70728,-6.14461 0.858102,-0.95673 1.419309,-1.82077 2.000614,-3.0778 1.6275802,-3.51872 4.2704322,-5.39278 7.6619622,-5.43232 2.214378,-0.0285 3.939791,0.65188 5.688579,2.23298 0.905341,0.81895 1.305075,1.37657 2.061676,2.8774 0.684649,1.35804 1.285333,2.23319 2.219799,3.23445 1.8014,1.93063 1.941459,2.23007 1.963759,4.20109 0.01495,1.3418 -0.05343,1.7811 -0.375026,2.40026 -0.555985,1.07244 -1.90804,2.22907 -3.002042,2.56784 -1.213214,0.37546 -2.031347,0.36833 -4.412484,-0.0427 -1.185437,-0.20305 -2.774795,-0.33271 -3.928036,-0.31916 -1.153163,0.0142 -2.739104,0.17952 -3.919346,0.41106 -2.363285,0.46309 -3.3369712,0.48304 -4.5620332,0.0933 z m -5.002504,-9.54777 c -2.5495934,-0.90195 -3.96646442,-3.30521 -3.53724322,-5.99949 0.3492361,-2.19104 1.62402572,-4.18507 3.17804022,-4.96739 0.76894,-0.38756 1.11338,-0.46379 1.655702,-0.36904 2.406201,0.42247 4.398969,5.78191 3.29126,8.85158 -0.72796,2.01833 -2.774168,3.12617 -4.587744,2.48448 z M 28.213643,285.6067 c -1.681298,-0.56496 -2.856831,-2.40896 -2.881609,-4.51813 -0.02707,-2.30288 1.252738,-5.48169 2.550247,-6.36795 1.464556,-0.99385 3.068611,-0.44671 4.52996,1.54483 1.979388,2.69707 1.93439,5.98162 -0.110431,8.0749 -1.19539,1.22354 -2.768106,1.71076 -4.088228,1.26656 z M 9.8145408,277.72089 c -1.986813,-0.96058 -3.065947,-2.92106 -2.990143,-5.4289 0.03633,-1.20402 0.145622,-1.67693 0.602863,-2.65653 0.669191,-1.39509 1.980565,-2.86407 3.2240852,-3.61234 1.248821,-0.75155 2.813601,-0.78125 3.768386,-0.0712 1.767248,1.31438 2.587112,5.49758 1.659158,8.46544 -0.312688,0.99962 -0.584626,1.44311 -1.401499,2.28437 -1.505647,1.55061 -3.088451,1.88068 -4.8747262,1.01649 z m 10.9555242,0.11538 c -0.979499,-0.3035 -2.176833,-1.47482 -2.841322,-2.7857 -0.521146,-1.02818 -0.619819,-1.43513 -0.700467,-2.88957 -0.175757,-3.1734 0.703958,-5.67213 2.290232,-6.50496 3.224141,-1.69247 8.190915,3.57721 7.347741,7.79582 -0.659074,3.29672 -3.346888,5.23007 -6.096205,4.38441 z"
       style="fill:#1b1610;fill-opacity:1;stroke:none;stroke-width:0.18250851" />
  </g>
</svg>
