<!-- Created with Inkscape (http://www.inkscape.org/) -->
<svg width="216" height="216" version="1.1" viewBox="0 0 57.15 57.15" xmlns="http://www.w3.org/2000/svg">
 <g transform="translate(0 -239.85)">
  <rect x="7.0371e-5" y="239.85" width="57.15" height="57.15" opacity=".377"/>
  <path d="m-5.3881e-7 239.85v1.5875l0.52917-1.0583 1.0583-0.52917zm7.9375 0 1.0583 0.52917 0.52917 1.0583 0.52917-1.0583 1.0583-0.52917zm9.525 0 1.0583 0.52917 0.52917 1.0583 0.52917-1.0583 1.0583-0.52917zm9.525 0 1.0583 0.52917 0.52917 1.0583 0.52917-1.0583 1.0583-0.52917zm9.525 0 1.0583 0.52917 0.52917 1.0583 0.52917-1.0583 1.0583-0.52917zm9.525 0 1.0583 0.52917 0.52917 1.0583 0.52917-1.0583 1.0583-0.52917zm9.525 0 1.0583 0.52917 0.52917 1.0583v-1.5875zm-55.562 7.9375v3.175l0.52917-1.0583 1.0583-0.52917-1.0583-0.52916zm9.525 0-0.52917 1.0583-1.0583 0.52916 1.0583 0.52917 0.52917 1.0583 0.52917-1.0583 1.0583-0.52917-1.0583-0.52916zm9.525 0-0.52917 1.0583-1.0583 0.52916 1.0583 0.52917 0.52917 1.0583 0.52917-1.0583 1.0583-0.52917-1.0583-0.52916zm9.525 0-0.52917 1.0583-1.0583 0.52916 1.0583 0.52917 0.52917 1.0583 0.52917-1.0583 1.0583-0.52917-1.0583-0.52916zm9.525 0-0.52917 1.0583-1.0583 0.52916 1.0583 0.52917 0.52917 1.0583 0.52917-1.0583 1.0583-0.52917-1.0583-0.52916zm9.525 0-0.52917 1.0583-1.0583 0.52916 1.0583 0.52917 0.52917 1.0583 0.52917-1.0583 1.0583-0.52917-1.0583-0.52916zm9.525 0-0.52917 1.0583-1.0583 0.52916 1.0583 0.52917 0.52917 1.0583zm-57.15 9.525v3.175l0.52917-1.0583 1.0583-0.52917-1.0583-0.52916zm9.525 0-0.52917 1.0583-1.0583 0.52916 1.0583 0.52917 0.52917 1.0583 0.52917-1.0583 1.0583-0.52917-1.0583-0.52916zm38.1 0-0.52917 1.0583-1.0583 0.52916 1.0583 0.52917 0.52917 1.0583 0.52917-1.0583 1.0583-0.52917-1.0583-0.52916zm9.525 0-0.52917 1.0583-1.0583 0.52916 1.0583 0.52917 0.52917 1.0583zm-57.15 9.525v3.175l0.52917-1.0583 1.0583-0.52917-1.0583-0.52916zm9.525 0-0.52917 1.0583-1.0583 0.52916 1.0583 0.52917 0.52917 1.0583 0.52917-1.0583 1.0583-0.52917-1.0583-0.52916zm38.1 0-0.52917 1.0583-1.0583 0.52916 1.0583 0.52917 0.52917 1.0583 0.52917-1.0583 1.0583-0.52917-1.0583-0.52916zm9.525 0-0.52917 1.0583-1.0583 0.52916 1.0583 0.52917 0.52917 1.0583zm-57.15 9.525v3.175l0.52917-1.0583 1.0583-0.52917-1.0583-0.52916zm9.525 0-0.52917 1.0583-1.0583 0.52916 1.0583 0.52917 0.52917 1.0583 0.52917-1.0583 1.0583-0.52917-1.0583-0.52916zm38.1 0-0.52917 1.0583-1.0583 0.52916 1.0583 0.52917 0.52917 1.0583 0.52917-1.0583 1.0583-0.52917-1.0583-0.52916zm9.525 0-0.52917 1.0583-1.0583 0.52916 1.0583 0.52917 0.52917 1.0583zm-57.15 9.525v3.175l0.52917-1.0583 1.0583-0.52917-1.0583-0.52916zm9.525 0-0.52917 1.0583-1.0583 0.52916 1.0583 0.52917 0.52917 1.0583 0.52917-1.0583 1.0583-0.52917-1.0583-0.52916zm9.525 0-0.52917 1.0583-1.0583 0.52916 1.0583 0.52917 0.52917 1.0583 0.52917-1.0583 1.0583-0.52917-1.0583-0.52916zm9.525 0-0.52917 1.0583-1.0583 0.52916 1.0583 0.52917 0.52917 1.0583 0.52917-1.0583 1.0583-0.52917-1.0583-0.52916zm9.525 0-0.52917 1.0583-1.0583 0.52916 1.0583 0.52917 0.52917 1.0583 0.52917-1.0583 1.0583-0.52917-1.0583-0.52916zm9.525 0-0.52917 1.0583-1.0583 0.52916 1.0583 0.52917 0.52917 1.0583 0.52917-1.0583 1.0583-0.52917-1.0583-0.52916zm9.525 0-0.52917 1.0583-1.0583 0.52916 1.0583 0.52917 0.52917 1.0583zm-57.15 9.525v1.5875h1.5875l-1.0583-0.52916zm9.525 0-0.52917 1.0583-1.0583 0.52916h3.175l-1.0583-0.52916zm9.525 0-0.52917 1.0583-1.0583 0.52916h3.175l-1.0583-0.52916zm9.525 0-0.52917 1.0583-1.0583 0.52916h3.175l-1.0583-0.52916zm9.525 0-0.52917 1.0583-1.0583 0.52916h3.175l-1.0583-0.52916zm9.525 0-0.52917 1.0583-1.0583 0.52916h3.175l-1.0583-0.52916zm9.525 0-0.52917 1.0583-1.0583 0.52916h1.5875z" fill="#808080" fill-opacity=".96471" fill-rule="evenodd" stroke-width=".26458"/>
  <path d="m22.261 256.08a0.14026 0.14026 0 0 0-0.08835 0.0395c-0.58848 0.56643-0.73998 1.2882-0.85658 1.913-0.74886 0.0617-1.4944 0.19747-2.211 0.43389-0.68224 0.22515-1.2923 0.5231-1.8474 0.86771-0.56108-0.52001-1.4095-0.89285-2.165-1.0376a0.14026 0.14026 0 0 0-0.11946 0.0329c-1.1228 0.9887-2.0057 3.0309-1.2949 6.2451-0.03703 0.32794-0.065 0.6048-0.08447 0.80208-0.29534 3.0417 1.1931 6.581 3.9585 9.28 2.4668 2.4078 5.9227 4.8963 10.95 6.1016 0.09121 0.0223 0.18761 0.0223 0.27924 0 5.0374-1.2078 9.0404-4.4157 11.296-6.8521 2.3139-2.4991 3.9089-5.4864 3.6135-8.5295-0.14931-1.5374-0.69712-2.9964-1.6358-4.215 0.28465-0.31173 0.50283-0.63671 0.56986-0.97204 0.0741-0.36991 0-0.74446-0.23136-1.0792-0.85066-1.2458-2.1215-1.8829-3.1192-1.9862-0.45944-0.0478-0.86698-0.0387-1.2117 0.14024-0.31719 0.16483-0.5503 0.49226-0.71542 0.97639-1.7308-0.43249-3.4836-0.42699-5.1366 0.19598-0.18752-0.4588-0.6089-0.87783-1.3104-0.8471-0.48254 0.0213-1.0972 0.37058-1.6422 0.82728-0.54505 0.45676-1.0148 1.0179-1.1045 1.5537-0.04362 0.2584 0.06093 0.50041 0.19719 0.6969 0.10543 0.15261 0.22922 0.25684 0.34404 0.35502-0.02036 0.0264-0.04359 0.0568-0.06338 0.0834-0.70794-0.95941-1.6097-1.7097-2.6383-2.224-0.30234-0.64702-0.81681-1.3175-1.4639-1.8419-0.66528-0.53936-1.456-0.92877-2.2548-0.95989a0.14026 0.14026 0 0 0-0.01336 0zm0.43395 1.0409c0.40138 0.10843 0.86205 0.38369 1.27 0.82496 0.44172 0.47789 0.8157 1.0931 0.9958 1.707a0.14026 0.14026 0 0 0 0.08148 0.0902c1.2832 0.52396 2.3813 1.4119 3.0778 2.6647 0.0105 0.0181 0.02132 0.0321 0.03296 0.0485-0.35136 2.9413-0.1417 4.4482 0.13152 5.7961 0.03118 0.19621 0.05434 0.38464 0.05765 0.53796 0 0.15506-0.02163 0.27227-0.05024 0.31894-0.17543 0.28261-0.44789 0.45712-0.67689 0.71981-0.10483 0.0941-0.20556 0.19369-0.31026 0.30444-0.72754 0.76931-2.0021 1.6837-3.4995 1.8056a0.14026 0.14026 0 0 0-0.01463 0.27831h0.03786c1.5672 0.27355 2.9304-0.54117 4.0451-1.5503 0.43942-0.39774 0.76584-0.45857 1.2107-0.45027 1.5042 0.028 2.462 0.99761 2.5192 2.2986 0.04196 0.94369-0.72951 2.2172-1.9024 2.6691-1.4388-1.6143-3.2415-2.1212-4.8569-1.9162-0.8281 0.10506-1.6167 0.39686-2.2429 0.99138-0.58587 0.55628-1.0017 1.4041-1.2053 2.5528-1.5616-0.97054-2.8449-2.1534-3.6671-3.1685-2.4542-3.03-3.3425-5.6748-2.7159-9.4478a0.14026 0.14026 0 0 0 0-0.0609c-0.68752-2.4286-0.10998-3.9554 0.47884-4.7386 0.45062 0.18281 1.0941 0.69789 1.5231 1.3433a0.14026 0.14026 0 0 0 0.20374 0.0329c0.627-0.50082 1.3607-0.87353 2.2623-1.1712 0.66719-0.22013 1.3612-0.35191 2.0567-0.39893 0.30189-0.0114 0.51285-0.0114 0.75258 0.0102a0.14026 0.14026 0 0 0 0.15128-0.15567c-0.07079-0.61968-0.03458-1.3395 0.25518-1.9359zm16.365 1.2523c0.32273 0.0115 0.85069 0.21625 1.3004 0.49638 0.44976 0.28016 0.82114 0.64943 0.88967 0.88212 0.06916 0.23403 0.04117 0.42435-0.04196 0.60356-0.07406 0.15993-0.2024 0.30389-0.33867 0.43825-0.0175-0.01-0.02895-0.0115-0.05268-0.0239-0.08148-0.0445-0.19286-0.11352-0.30466-0.18408-0.11167-0.0708-0.22512-0.14241-0.32002-0.19509-0.04775-0.0264-0.08825-0.0477-0.13133-0.0634-0.02132-0.01-0.04359-0.0146-0.07244-0.0175-0.02863 0-0.07655-0.0102-0.127 0.0346a0.14026 0.14026 0 0 0 0 0.2137c1.543 1.3519 2.5826 2.8543 2.7731 5.1933 0.2165 2.6576-0.71163 4.6349-3.187 7.6709-1.9052 2.3364-6.1347 5.2674-10.804 6.4268-2.1997-0.54559-4.3227-1.4026-6.1575-2.3995 0.10699-2.0238 1.0845-2.9131 2.0378-3.2311 1.3346-0.44509 3.4937-0.37945 4.9873 1.5549a0.14026 0.14026 0 0 0 0.14348 0.0502c1.9312-0.4595 2.8869-1.8249 3.0108-3.0548 0.09019-0.89396-0.27768-1.7027-0.88076-2.3325-0.60197-0.62882-1.4383-1.0871-2.3173-1.304 0.03296 0.01 0.014 0.01-0.0099-0.0175-0.02132-0.0254-0.0502-0.0691-0.08339-0.12497-0.06586-0.11304-0.14628-0.28108-0.22782-0.49109-0.16334-0.41973-0.33539-1.0078-0.44471-1.6903-0.21879-1.3649-0.18653-3.1013 0.63426-4.638a0.14026 0.14026 0 0 0 0.0099-0.0146c0.21691-0.54594 0.6731-1.2244 1.1633-1.5195a0.14026 0.14026 0 0 0 0.01973-0.22589c-0.0502-0.0436-0.1131-0.0486-0.15456-0.0436-0.042 0.01-0.07492 0.0175-0.10718 0.0312-0.06586 0.027-0.13139 0.0651-0.1984 0.10183-0.06668 0.0371-0.13458 0.0741-0.19063 0.0977-0.05599 0.0232-0.10101 0.0286-0.10413 0.028-0.08927-0.0124-0.20976-0.0873-0.29448-0.18644-0.08444-0.0994-0.1256-0.21844-0.11746-0.28029 0.028-0.21217 0.26718-0.65789 0.57311-1.0091 0.153-0.17565 0.32126-0.33084 0.48091-0.43595 0.15968-0.10531 0.30803-0.15462 0.412-0.14591 0.15071 0.0124 0.24685 0.0717 0.3276 0.16764 0.08068 0.0951 0.13919 0.23161 0.17533 0.38234 0.07165 0.30123 0.05351 0.65609 0.0321 0.79973a0.14026 0.14026 0 0 0 0.20603 0.14473c1.8176-0.98626 4.3707-1.0891 6.449-0.40329a0.14026 0.14026 0 0 0 0.18325-0.11714c0.06586-0.60206 0.24933-0.96618 0.64956-1.1395 0.04775-0.0204 0.1215-0.0329 0.2137-0.0286zm-2.334 2.3354c-0.14718 0.01-0.30555 0.0543-0.47859 0.14984l-0.19888 0.32639c0.70043-0.26782 1.1564-0.15443 1.9684 0.45581l-0.17425-0.30619c-0.3338-0.33771-0.67492-0.65118-1.1167-0.62585zm-2.1846 0.93433c-0.27707-0.01-0.57056 0.0213-0.84443 0.0873-0.90796 0.21806-1.3855 0.85585-1.339 1.4886 0.04938 0.67329 1.0297 1.6048 1.7442 1.5416 0.81315-0.0716 2.0988-2.0639 1.524-2.7397-0.20619-0.24243-0.62296-0.36374-1.0848-0.37799zm-3.1407 0.27074c-0.67705 0.0197-0.90424 0.54817-1.1047 1.1067l-0.02895 0.35111c0.4791-0.89552 0.84458-1.1902 1.5926-1.2424l-0.3177-0.21255h-0.14142zm-4.5321 3.3444c-0.33424 0-0.64479 0.1752-0.86447 0.6752h-0.01463l-0.05103 0.0264c0.1298 0.12582 0.21666 0.2695 0.30116 0.41419 0.40949-0.84687 0.93567-0.73797 1.5185-0.59541l-0.06338-0.17845-0.04775-0.0552h0.028l-0.01591-0.0453c-0.25668-0.13565-0.53086-0.23896-0.79085-0.23797zm-0.42908 2.36c-0.27348-6e-5 -0.59172 0.0774-0.912 0.23543-0.75674 0.37278-1.3214 1.2872-0.83374 1.7544 0.30771 0.29477 1.4808 0.28366 1.778 0.0979 0.30755-0.19229 0.95078-1.1681 0.71077-1.7051-0.11336-0.25382-0.39126-0.38254-0.743-0.38264zm-4.2196 0.47112-0.13623 0.0854-0.01336 0.0477c-0.90942-0.10413-1.2692 0.75264-1.4335 1.7973l0.05841 0.0585 0.07903-0.0931v0.16716l0.22958 0.22591c0.40344-1.0949 0.60967-1.5556 1.5663-1.7107-0.07158-0.24382-0.18313-0.44197-0.34751-0.57804z" color="#000000" color-rendering="auto" dominant-baseline="auto" fill="#ccc" image-rendering="auto" opacity=".94" shape-rendering="auto" solid-color="#000000" style="font-feature-settings:normal;font-variant-alternates:normal;font-variant-caps:normal;font-variant-ligatures:normal;font-variant-numeric:normal;font-variant-position:normal;isolation:auto;mix-blend-mode:normal;shape-padding:0;text-decoration-color:#000000;text-decoration-line:none;text-decoration-style:solid;text-indent:0;text-orientation:mixed;text-transform:none;white-space:normal"/>
 </g>
</svg>
