<?xml version="1.0" encoding="UTF-8" standalone="no"?>
<!-- Created with Inkscape (http://www.inkscape.org/) -->

<svg
   xmlns:dc="http://purl.org/dc/elements/1.1/"
   xmlns:cc="http://creativecommons.org/ns#"
   xmlns:rdf="http://www.w3.org/1999/02/22-rdf-syntax-ns#"
   xmlns:svg="http://www.w3.org/2000/svg"
   xmlns="http://www.w3.org/2000/svg"
   xmlns:sodipodi="http://sodipodi.sourceforge.net/DTD/sodipodi-0.dtd"
   xmlns:inkscape="http://www.inkscape.org/namespaces/inkscape"
   width="128"
   height="128"
   viewBox="0 0 33.866666 33.866668"
   version="1.1"
   id="svg1849"
   inkscape:version="0.92.3 (2405546, 2018-03-11)"
   sodipodi:docname="logo-lines.svg">
  <defs
     id="defs1843" />
  <sodipodi:namedview
     id="base"
     pagecolor="#ffffff"
     bordercolor="#666666"
     borderopacity="1.0"
     inkscape:pageopacity="0.0"
     inkscape:pageshadow="2"
     inkscape:zoom="0.7"
     inkscape:cx="105.61665"
     inkscape:cy="256.09623"
     inkscape:document-units="mm"
     inkscape:current-layer="layer1"
     showgrid="false"
     units="px"
     inkscape:window-width="1920"
     inkscape:window-height="1025"
     inkscape:window-x="0"
     inkscape:window-y="27"
     inkscape:window-maximized="1" />
  <metadata
     id="metadata1846">
    <rdf:RDF>
      <cc:Work
         rdf:about="">
        <dc:format>image/svg+xml</dc:format>
        <dc:type
           rdf:resource="http://purl.org/dc/dcmitype/StillImage" />
        <dc:title></dc:title>
      </cc:Work>
    </rdf:RDF>
  </metadata>
  <g
     inkscape:label="Layer 1"
     inkscape:groupmode="layer"
     id="layer1"
     transform="translate(0,-263.13332)">
    <path
       inkscape:export-ydpi="599"
       inkscape:export-xdpi="599"
       inkscape:connector-curvature="0"
       id="path1114"
       d="m 9.8773927,269.40144 a 0.15674868,0.15674868 0 0 0 -0.09871,0.0441 c -0.657705,0.63301 -0.826947,1.43967 -0.957318,2.13791 -0.836883,0.069 -1.670076,0.22073 -2.470949,0.48492 -0.76246,0.25162 -1.444275,0.58464 -2.06466,0.96975 -0.627067,-0.58115 -1.575191,-0.99781 -2.419521,-1.1596 a 0.15674868,0.15674868 0 0 0 -0.133647,0.0369 c -1.25481098,1.10501 -2.24147898,3.38726 -1.44711398,6.97944 -0.04127,0.36654 -0.07272,0.67594 -0.09434,0.89643 -0.330054,3.39938 1.33331798,7.35476 4.42395298,10.37109 2.756848,2.69089 6.6190943,5.47207 12.2374343,6.81908 0.101982,0.0247 0.209642,0.0247 0.31206,0 5.629652,-1.34981 10.103374,-4.93487 12.624345,-7.65772 2.58604,-2.79305 4.36856,-6.13152 4.03839,-9.53245 -0.16684,-1.7182 -0.77914,-3.34869 -1.82818,-4.71061 0.31813,-0.34838 0.56195,-0.71158 0.63692,-1.08629 0.083,-0.41343 0,-0.83202 -0.2586,-1.20618 -0.9507,-1.39226 -2.37096,-2.10432 -3.48597,-2.21978 -0.5134,-0.0535 -0.96889,-0.0432 -1.354186,0.15658 -0.354446,0.18409 -0.614991,0.55013 -0.799519,1.09116 -1.934333,-0.48335 -3.893234,-0.47717 -5.7405,0.21905 -0.209641,-0.51279 -0.680526,-0.98105 -1.464431,-0.94674 -0.539302,0.024 -1.226227,0.41417 -1.835365,0.92454 -0.609095,0.51052 -1.134116,1.13767 -1.234285,1.73637 -0.0487,0.28878 0.06791,0.55926 0.22032,0.77884 0.117923,0.17055 0.256221,0.28703 0.384539,0.39679 -0.02315,0.0295 -0.0487,0.0636 -0.07097,0.0933 -0.791177,-1.07221 -1.799005,-1.91069 -2.948494,-2.48548 -0.337915,-0.72308 -0.912878,-1.47238 -1.636075,-2.05852 -0.743527,-0.60274 -1.627143,-1.03798 -2.5198873,-1.07275 a 0.15674868,0.15674868 0 0 0 -0.01529,0 z m 0.4849923,1.16329 c 0.448589,0.1212 0.963411,0.42881 1.419358,0.92201 0.493662,0.53402 0.911568,1.22153 1.112868,1.90762 a 0.15674868,0.15674868 0 0 0 0.09106,0.10068 c 1.434055,0.58555 2.661264,1.57792 3.439644,2.97804 0.0131,0.0218 0.02402,0.036 0.0369,0.0541 -0.39264,3.28713 -0.158322,4.97123 0.146968,6.47759 0.03494,0.21934 0.06071,0.4299 0.06442,0.60121 0,0.17339 -0.02402,0.30433 -0.0559,0.35648 -0.196102,0.31584 -0.500584,0.51089 -0.75652,0.80445 -0.117269,0.10504 -0.229732,0.21641 -0.346695,0.34017 -0.813102,0.85981 -2.237461,1.88172 -3.910987,2.01795 a 0.15674868,0.15674868 0 0 0 -0.01747,0.31105 c 0.01529,0 0.02773,0 0.04237,0 v 0 c 0,-1.9e-4 0,0 0,0 1.751443,0.30571 3.274901,-0.60477 4.520716,-1.73257 0.491084,-0.44453 0.85586,-0.51253 1.353015,-0.50325 1.681061,0.0312 2.751519,1.11494 2.815394,2.56885 0.04673,1.05464 -0.815286,2.47793 -2.126067,2.98291 -1.607905,-1.80412 -3.622644,-2.37054 -5.427917,-2.14151 -0.925478,0.11727 -1.806801,0.44352 -2.50661,1.10791 -0.6547793,0.62172 -1.1195063,1.56923 -1.3470323,2.85302 -1.745167,-1.08463 -3.179418,-2.40662 -4.09828,-3.54101 -2.742784,-3.38623 -3.735501,-6.34202 -3.035255,-10.55869 a 0.15674868,0.15674868 0 0 0 0,-0.0681 c -0.768335,-2.71417 -0.122946,-4.42043 0.535174,-5.29571 0.503576,0.20418 1.222733,0.77995 1.7022,1.50132 a 0.15674868,0.15674868 0 0 0 0.2277,0.0369 c 0.700748,-0.55972 1.520707,-0.97627 2.528339,-1.30892 0.745646,-0.24603 1.521274,-0.3933 2.298563,-0.44582 0.337347,-0.0131 0.573106,-0.0131 0.84101,0.0109 a 0.15674868,0.15674868 0 0 0 0.1690243,-0.17404 c -0.07905,-0.69254 -0.03865,-1.49697 0.285177,-2.16348 z m 18.288841,1.39953 c 0.3606,0.0131 0.95067,0.2417 1.45325,0.55477 0.50265,0.31306 0.91768,0.72577 0.99431,0.98583 0.0773,0.26157 0.0463,0.47425 -0.0472,0.67452 -0.0828,0.17864 -0.22622,0.33967 -0.37847,0.4898 -0.0196,-0.0109 -0.0321,-0.0131 -0.059,-0.0266 -0.0911,-0.0498 -0.21554,-0.12688 -0.34049,-0.20571 -0.1247,-0.0791 -0.25159,-0.1592 -0.35768,-0.21794 -0.0535,-0.0295 -0.0987,-0.0533 -0.14653,-0.071 -0.024,-0.0109 -0.0487,-0.0175 -0.0808,-0.0197 -0.0323,0 -0.0856,-0.0109 -0.14173,0.0386 a 0.15674868,0.15674868 0 0 0 0,0.23882 c 1.72441,1.51086 2.88626,3.18989 3.09922,5.80398 0.24196,2.97003 -0.79533,5.17989 -3.56178,8.57284 -2.12917,2.61113 -6.855945,5.88668 -12.074679,7.18244 -2.458327,-0.60975 -4.830898,-1.56752 -6.881451,-2.68162 0.119452,-2.26172 1.212054,-3.25557 2.27749,-3.61098 1.491531,-0.49739 3.904436,-0.42408 5.573726,1.73775 a 0.15674868,0.15674868 0 0 0 0.160288,0.0559 c 2.158235,-0.51351 3.226335,-2.03946 3.364807,-3.4139 0.10089,-0.99909 -0.310313,-1.90287 -0.984309,-2.60674 -0.672774,-0.70275 -1.607446,-1.21489 -2.589811,-1.45731 0.0369,0.0109 0.01747,0.0109 -0.01092,-0.0197 -0.02402,-0.0284 -0.05612,-0.0773 -0.09325,-0.13976 -0.07359,-0.12622 -0.163564,-0.3142 -0.254648,-0.54889 -0.182563,-0.4691 -0.3748,-1.12632 -0.496981,-1.88906 -0.244516,-1.52538 -0.208549,-3.46599 0.708849,-5.18325 a 0.15674868,0.15674868 0 0 0 0.01092,-0.0175 c 0.242398,-0.61012 0.752262,-1.36837 1.300103,-1.69818 a 0.15674868,0.15674868 0 0 0 0.02206,-0.25242 c -0.05612,-0.0487 -0.126658,-0.0542 -0.172736,-0.0487 -0.04695,0.0109 -0.08342,0.0197 -0.11967,0.0349 -0.07337,0.0303 -0.146749,0.0727 -0.221717,0.11377 -0.07447,0.0413 -0.150243,0.0825 -0.213135,0.10941 -0.06267,0.0258 -0.112901,0.0323 -0.116395,0.0312 -0.0998,-0.0153 -0.234403,-0.0976 -0.329069,-0.20834 -0.09434,-0.11093 -0.140416,-0.24414 -0.131462,-0.31326 0.03123,-0.23707 0.298585,-0.73522 0.640453,-1.12776 0.171207,-0.19632 0.359076,-0.36975 0.537446,-0.48724 0.178414,-0.11792 0.344249,-0.17251 0.460447,-0.16312 0.168368,0.0153 0.275896,0.0799 0.366151,0.18714 0.09019,0.10635 0.155702,0.25889 0.195883,0.42734 0.07993,0.33663 0.05984,0.73322 0.03603,0.89375 a 0.15674868,0.15674868 0 0 0 0.230234,0.16182 c 2.031314,-1.10221 4.884596,-1.21712 7.207268,-0.45069 a 0.15674868,0.15674868 0 0 0 0.204618,-0.13102 c 0.0736,-0.67288 0.27865,-1.07976 0.72595,-1.27353 0.0533,-0.0231 0.13605,-0.0369 0.23882,-0.0323 z m -2.608443,2.61006 c -0.164438,0.0109 -0.341453,0.0609 -0.534869,0.16749 l -0.222264,0.36473 c 0.782814,-0.29926 1.292395,-0.17251 2.199857,0.50941 l -0.194791,-0.34213 c -0.373052,-0.37746 -0.754272,-0.7278 -1.247955,-0.69948 z m -2.44149,1.04418 c -0.309658,-0.0109 -0.637637,0.024 -0.943692,0.0976 -1.014728,0.24366 -1.548396,0.95649 -1.496423,1.66355 0.05525,0.75245 1.150778,1.7935 1.949336,1.72285 0.908729,-0.0799 2.345535,-2.30666 1.703225,-3.06187 -0.230452,-0.2709 -0.696249,-0.40651 -1.212446,-0.42243 z m -3.50994,0.30257 c -0.756674,0.022 -1.01058,0.61261 -1.234612,1.2369 l -0.03232,0.39236 c 0.535415,-1.00084 0.943866,-1.33009 1.779854,-1.38848 l -0.355014,-0.23755 c -0.05525,0 -0.107441,0 -0.158105,0 z m -5.064953,3.73766 c -0.373642,0 -0.720642,0.19566 -0.966184,0.75455 h -0.01747 l -0.057,0.0293 c 0.145221,0.14063 0.242092,0.3012 0.336584,0.46293 0.457607,-0.94644 1.045651,-0.82476 1.69698,-0.66543 l -0.07097,-0.19938 -0.0535,-0.0616 0.03123,-3.5e-4 -0.01965,-0.0507 c -0.286946,-0.15155 -0.593284,-0.26705 -0.883856,-0.26594 z m -0.479598,2.63755 c -0.305618,-1.1e-4 -0.661287,0.0865 -1.01925,0.2631 -0.845727,0.41657 -1.476747,1.43855 -0.931724,1.96064 0.343855,0.32945 1.654921,0.31702 1.987028,0.10941 0.343702,-0.21488 1.062553,-1.30554 0.794321,-1.90562 -0.126658,-0.28365 -0.437298,-0.42753 -0.830375,-0.42762 z m -4.7156833,0.5265 -0.152208,0.0954 -0.01529,0.0533 c -1.016367,-0.1164 -1.41842,0.84112 -1.602118,2.00864 l 0.0653,0.0653 0.08822,-0.10417 v 0.18671 l 0.25657,0.25245 c 0.45086,-1.22365 0.681334,-1.73854 1.7504393,-1.91187 -0.07993,-0.27251 -0.204619,-0.49394 -0.3884263,-0.64602 z"
       style="color:#000000;font-style:normal;font-variant:normal;font-weight:normal;font-stretch:normal;font-size:medium;line-height:normal;font-family:sans-serif;font-variant-ligatures:normal;font-variant-position:normal;font-variant-caps:normal;font-variant-numeric:normal;font-variant-alternates:normal;font-feature-settings:normal;text-indent:0;text-align:start;text-decoration:none;text-decoration-line:none;text-decoration-style:solid;text-decoration-color:#000000;letter-spacing:normal;word-spacing:normal;text-transform:none;writing-mode:lr-tb;direction:ltr;text-orientation:mixed;dominant-baseline:auto;baseline-shift:baseline;text-anchor:start;white-space:normal;shape-padding:0;clip-rule:nonzero;display:inline;overflow:visible;visibility:visible;opacity:1;isolation:auto;mix-blend-mode:normal;color-interpolation:sRGB;color-interpolation-filters:linearRGB;solid-color:#000000;solid-opacity:1;vector-effect:none;fill:#694f2b;fill-opacity:1;fill-rule:nonzero;stroke:none;stroke-width:0.31346601;stroke-linecap:round;stroke-linejoin:round;stroke-miterlimit:4;stroke-dasharray:none;stroke-dashoffset:0;stroke-opacity:1;color-rendering:auto;image-rendering:auto;shape-rendering:auto;text-rendering:auto;enable-background:accumulate" />
  </g>
</svg>
